<mxfile host="app.diagrams.net" agent="Mozilla/5.0 (Windows NT 10.0; Win64; x64) AppleWebKit/537.36 (KHTML, like Gecko) Chrome/140.0.0.0 Safari/537.36" version="28.2.0">
  <diagram name="Page-1" id="31KEoe8-ohxr8Ncgp-zN">
    <mxGraphModel dx="2066" dy="1103" grid="1" gridSize="10" guides="1" tooltips="1" connect="1" arrows="1" fold="1" page="1" pageScale="1" pageWidth="850" pageHeight="1100" math="0" shadow="0">
      <root>
        <mxCell id="0" />
        <mxCell id="1" parent="0" />
        <mxCell id="6LCwnZxStUmdCqaVuPOR-1" value="" style="swimlane;html=1;childLayout=stackLayout;resizeParent=1;resizeParentMax=0;horizontal=1;startSize=20;horizontalStack=0;whiteSpace=wrap;" vertex="1" parent="1">
          <mxGeometry x="170" y="80" width="1040" height="670" as="geometry" />
        </mxCell>
        <mxCell id="6LCwnZxStUmdCqaVuPOR-2" value="Customer" style="swimlane;html=1;startSize=20;horizontal=0;" vertex="1" parent="6LCwnZxStUmdCqaVuPOR-1">
          <mxGeometry y="20" width="1040" height="200" as="geometry" />
        </mxCell>
        <mxCell id="6LCwnZxStUmdCqaVuPOR-15" style="edgeStyle=orthogonalEdgeStyle;rounded=0;orthogonalLoop=1;jettySize=auto;html=1;exitX=1;exitY=0.5;exitDx=0;exitDy=0;entryX=0;entryY=0.5;entryDx=0;entryDy=0;" edge="1" parent="6LCwnZxStUmdCqaVuPOR-2" source="6LCwnZxStUmdCqaVuPOR-8" target="6LCwnZxStUmdCqaVuPOR-9">
          <mxGeometry relative="1" as="geometry" />
        </mxCell>
        <mxCell id="6LCwnZxStUmdCqaVuPOR-8" value="Start" style="ellipse;whiteSpace=wrap;html=1;" vertex="1" parent="6LCwnZxStUmdCqaVuPOR-2">
          <mxGeometry x="40" y="20" width="100" height="100" as="geometry" />
        </mxCell>
        <mxCell id="6LCwnZxStUmdCqaVuPOR-9" value="Reports Unauthorized Transaction" style="rounded=0;whiteSpace=wrap;html=1;" vertex="1" parent="6LCwnZxStUmdCqaVuPOR-2">
          <mxGeometry x="190" y="20" width="140" height="100" as="geometry" />
        </mxCell>
        <mxCell id="6LCwnZxStUmdCqaVuPOR-40" style="edgeStyle=orthogonalEdgeStyle;rounded=0;orthogonalLoop=1;jettySize=auto;html=1;exitX=1;exitY=0.5;exitDx=0;exitDy=0;" edge="1" parent="6LCwnZxStUmdCqaVuPOR-2" source="6LCwnZxStUmdCqaVuPOR-29">
          <mxGeometry relative="1" as="geometry">
            <mxPoint x="880" y="70" as="targetPoint" />
          </mxGeometry>
        </mxCell>
        <mxCell id="6LCwnZxStUmdCqaVuPOR-29" value="&lt;div&gt;Notify the Cusomer&lt;/div&gt;" style="rounded=0;whiteSpace=wrap;html=1;" vertex="1" parent="6LCwnZxStUmdCqaVuPOR-2">
          <mxGeometry x="610" y="10" width="140" height="120" as="geometry" />
        </mxCell>
        <mxCell id="6LCwnZxStUmdCqaVuPOR-31" value="End" style="ellipse;whiteSpace=wrap;html=1;" vertex="1" parent="6LCwnZxStUmdCqaVuPOR-2">
          <mxGeometry x="880" y="20" width="110" height="110" as="geometry" />
        </mxCell>
        <mxCell id="6LCwnZxStUmdCqaVuPOR-3" value="Customer Support" style="swimlane;html=1;startSize=20;horizontal=0;" vertex="1" parent="6LCwnZxStUmdCqaVuPOR-1">
          <mxGeometry y="220" width="1040" height="240" as="geometry" />
        </mxCell>
        <mxCell id="6LCwnZxStUmdCqaVuPOR-10" value="Logs Complaint and Block the Card" style="rounded=0;whiteSpace=wrap;html=1;" vertex="1" parent="6LCwnZxStUmdCqaVuPOR-3">
          <mxGeometry x="190" y="40" width="140" height="120" as="geometry" />
        </mxCell>
        <mxCell id="6LCwnZxStUmdCqaVuPOR-30" value="Notify Customer&lt;div&gt;NOT a Fraud&lt;/div&gt;" style="rounded=0;whiteSpace=wrap;html=1;" vertex="1" parent="6LCwnZxStUmdCqaVuPOR-3">
          <mxGeometry x="620" y="40" width="140" height="120" as="geometry" />
        </mxCell>
        <mxCell id="6LCwnZxStUmdCqaVuPOR-37" style="edgeStyle=orthogonalEdgeStyle;rounded=0;orthogonalLoop=1;jettySize=auto;html=1;exitX=0.5;exitY=0;exitDx=0;exitDy=0;" edge="1" parent="6LCwnZxStUmdCqaVuPOR-3">
          <mxGeometry relative="1" as="geometry">
            <mxPoint x="689.5" y="255" as="sourcePoint" />
            <mxPoint x="690" y="160" as="targetPoint" />
          </mxGeometry>
        </mxCell>
        <mxCell id="6LCwnZxStUmdCqaVuPOR-4" value="Fraud Investigation Team" style="swimlane;html=1;startSize=20;horizontal=0;" vertex="1" parent="6LCwnZxStUmdCqaVuPOR-1">
          <mxGeometry y="460" width="1040" height="210" as="geometry" />
        </mxCell>
        <mxCell id="6LCwnZxStUmdCqaVuPOR-22" style="edgeStyle=orthogonalEdgeStyle;rounded=0;orthogonalLoop=1;jettySize=auto;html=1;exitX=1;exitY=0.5;exitDx=0;exitDy=0;entryX=0;entryY=0.5;entryDx=0;entryDy=0;" edge="1" parent="6LCwnZxStUmdCqaVuPOR-4" source="6LCwnZxStUmdCqaVuPOR-11" target="6LCwnZxStUmdCqaVuPOR-12">
          <mxGeometry relative="1" as="geometry" />
        </mxCell>
        <mxCell id="6LCwnZxStUmdCqaVuPOR-11" value="Review Transaction Details" style="rounded=0;whiteSpace=wrap;html=1;" vertex="1" parent="6LCwnZxStUmdCqaVuPOR-4">
          <mxGeometry x="185" y="20" width="140" height="120" as="geometry" />
        </mxCell>
        <mxCell id="6LCwnZxStUmdCqaVuPOR-25" style="edgeStyle=orthogonalEdgeStyle;rounded=0;orthogonalLoop=1;jettySize=auto;html=1;exitX=1;exitY=0.5;exitDx=0;exitDy=0;" edge="1" parent="6LCwnZxStUmdCqaVuPOR-4" source="6LCwnZxStUmdCqaVuPOR-12">
          <mxGeometry relative="1" as="geometry">
            <mxPoint x="620" y="80" as="targetPoint" />
          </mxGeometry>
        </mxCell>
        <mxCell id="6LCwnZxStUmdCqaVuPOR-27" value="No" style="edgeLabel;html=1;align=center;verticalAlign=middle;resizable=0;points=[];" vertex="1" connectable="0" parent="6LCwnZxStUmdCqaVuPOR-25">
          <mxGeometry x="-0.2217" y="-1" relative="1" as="geometry">
            <mxPoint as="offset" />
          </mxGeometry>
        </mxCell>
        <mxCell id="6LCwnZxStUmdCqaVuPOR-12" value="Fraud?&lt;br&gt;YES or NO" style="rhombus;whiteSpace=wrap;html=1;" vertex="1" parent="6LCwnZxStUmdCqaVuPOR-4">
          <mxGeometry x="390" y="20" width="120" height="120" as="geometry" />
        </mxCell>
        <mxCell id="6LCwnZxStUmdCqaVuPOR-20" style="edgeStyle=orthogonalEdgeStyle;rounded=0;orthogonalLoop=1;jettySize=auto;html=1;exitX=0.429;exitY=0.958;exitDx=0;exitDy=0;exitPerimeter=0;" edge="1" parent="6LCwnZxStUmdCqaVuPOR-4" target="6LCwnZxStUmdCqaVuPOR-11">
          <mxGeometry relative="1" as="geometry">
            <mxPoint x="254.05999999999995" y="-75.03999999999996" as="sourcePoint" />
            <mxPoint x="254" y="10" as="targetPoint" />
            <Array as="points">
              <mxPoint x="260" y="-80" />
              <mxPoint x="260" y="-80" />
            </Array>
          </mxGeometry>
        </mxCell>
        <mxCell id="6LCwnZxStUmdCqaVuPOR-26" value="Not a Fraud" style="rounded=0;whiteSpace=wrap;html=1;" vertex="1" parent="6LCwnZxStUmdCqaVuPOR-4">
          <mxGeometry x="620" y="20" width="140" height="120" as="geometry" />
        </mxCell>
        <mxCell id="6LCwnZxStUmdCqaVuPOR-19" style="edgeStyle=orthogonalEdgeStyle;rounded=0;orthogonalLoop=1;jettySize=auto;html=1;exitX=0.5;exitY=1;exitDx=0;exitDy=0;entryX=0.5;entryY=0;entryDx=0;entryDy=0;" edge="1" parent="6LCwnZxStUmdCqaVuPOR-1" source="6LCwnZxStUmdCqaVuPOR-9" target="6LCwnZxStUmdCqaVuPOR-10">
          <mxGeometry relative="1" as="geometry" />
        </mxCell>
        <mxCell id="6LCwnZxStUmdCqaVuPOR-36" style="edgeStyle=orthogonalEdgeStyle;rounded=0;orthogonalLoop=1;jettySize=auto;html=1;exitX=0.5;exitY=0;exitDx=0;exitDy=0;entryX=0.571;entryY=0.958;entryDx=0;entryDy=0;entryPerimeter=0;" edge="1" parent="6LCwnZxStUmdCqaVuPOR-1" source="6LCwnZxStUmdCqaVuPOR-30" target="6LCwnZxStUmdCqaVuPOR-29">
          <mxGeometry relative="1" as="geometry" />
        </mxCell>
        <mxCell id="6LCwnZxStUmdCqaVuPOR-6" value="Operational User" style="swimlane;html=1;startSize=20;horizontal=0;" vertex="1" parent="1">
          <mxGeometry x="170" y="750" width="1040" height="210" as="geometry" />
        </mxCell>
        <mxCell id="6LCwnZxStUmdCqaVuPOR-13" value="Give Credit Back and Notify Cusomer" style="rounded=0;whiteSpace=wrap;html=1;" vertex="1" parent="6LCwnZxStUmdCqaVuPOR-6">
          <mxGeometry x="390" y="45" width="140" height="120" as="geometry" />
        </mxCell>
        <mxCell id="6LCwnZxStUmdCqaVuPOR-7" value="&lt;b&gt;&lt;font style=&quot;font-size: 18px; color: rgb(0, 0, 255);&quot;&gt;&lt;u&gt;Credit Card Disute Resolution&lt;/u&gt;&lt;/font&gt;&lt;/b&gt;" style="text;html=1;align=center;verticalAlign=middle;resizable=0;points=[];autosize=1;strokeColor=none;fillColor=none;" vertex="1" parent="1">
          <mxGeometry x="680" y="33" width="280" height="40" as="geometry" />
        </mxCell>
        <mxCell id="6LCwnZxStUmdCqaVuPOR-24" style="edgeStyle=orthogonalEdgeStyle;rounded=0;orthogonalLoop=1;jettySize=auto;html=1;exitX=0.5;exitY=1;exitDx=0;exitDy=0;entryX=0.429;entryY=0.042;entryDx=0;entryDy=0;entryPerimeter=0;" edge="1" parent="1" source="6LCwnZxStUmdCqaVuPOR-12" target="6LCwnZxStUmdCqaVuPOR-13">
          <mxGeometry relative="1" as="geometry" />
        </mxCell>
        <mxCell id="6LCwnZxStUmdCqaVuPOR-28" value="Yes" style="edgeLabel;html=1;align=center;verticalAlign=middle;resizable=0;points=[];" vertex="1" connectable="0" parent="6LCwnZxStUmdCqaVuPOR-24">
          <mxGeometry x="-0.2675" y="-1" relative="1" as="geometry">
            <mxPoint y="-2" as="offset" />
          </mxGeometry>
        </mxCell>
        <mxCell id="6LCwnZxStUmdCqaVuPOR-42" style="edgeStyle=orthogonalEdgeStyle;rounded=0;orthogonalLoop=1;jettySize=auto;html=1;exitX=0.993;exitY=0.558;exitDx=0;exitDy=0;exitPerimeter=0;entryX=0.957;entryY=0.683;entryDx=0;entryDy=0;entryPerimeter=0;" edge="1" parent="1" source="6LCwnZxStUmdCqaVuPOR-13" target="6LCwnZxStUmdCqaVuPOR-30">
          <mxGeometry relative="1" as="geometry">
            <mxPoint x="1010" y="420" as="targetPoint" />
            <mxPoint x="750" y="855" as="sourcePoint" />
            <Array as="points">
              <mxPoint x="699" y="855" />
              <mxPoint x="1011" y="855" />
              <mxPoint x="1011" y="422" />
            </Array>
          </mxGeometry>
        </mxCell>
      </root>
    </mxGraphModel>
  </diagram>
</mxfile>
